<svg xmlns="http://www.w3.org/2000/svg" xmlns:xlink="http://www.w3.org/1999/xlink" version="1.1" id="Lager_1" x="0px" y="0px" width="48px" height="25.001px" viewBox="0 0 48 25.001" enable-background="new 0 0 48 25.001" xml:space="preserve">
<path fill="#ffffff" clip-rule="evenodd" d="M37.296,14.971l-1.797,1.797l-1.797-1.797v4.641h-1.796l3.593,5.389l3.593-5.389  h-1.796V14.971z M33.703,10.03l1.797-1.796l1.797,1.796V5.389h1.796L35.499,0l-3.593,5.389h1.796V10.03z M31.233,12.5l1.797-1.797  h-4.641V8.908l-5.389,3.593l5.389,3.593v-1.797h4.641L31.233,12.5z M48,12.5L42.61,8.908v1.796h-4.641l1.797,1.797l-1.797,1.796  h4.641v1.797L48,12.5z M0,24.001h26v-3H0V24.001z M26,3.001H0v3h26V3.001z M18,12.001H0v3h18V12.001z"/>
</svg>
